<?xml version="1.0" encoding="UTF-8" standalone="no"?>
<!-- Created with Sodipodi ("http://www.sodipodi.com/") -->

<svg
   xmlns:dc="http://purl.org/dc/elements/1.1/"
   xmlns:cc="http://creativecommons.org/ns#"
   xmlns:rdf="http://www.w3.org/1999/02/22-rdf-syntax-ns#"
   xmlns:svg="http://www.w3.org/2000/svg"
   xmlns="http://www.w3.org/2000/svg"
   xmlns:xlink="http://www.w3.org/1999/xlink"
   xmlns:sodipodi="http://sodipodi.sourceforge.net/DTD/sodipodi-0.dtd"
   xmlns:inkscape="http://www.inkscape.org/namespaces/inkscape"
   version="1"
   x="0.00000000"
   y="0.00000000"
   width="511"
   height="511"
   viewBox="0 0 510.99999 510.99999"
   id="svg548"
   sodipodi:version="0.32"
   sodipodi:docname="LogoJugPadova.svg"
   inkscape:version="0.92.5 (2060ec1f9f, 2020-04-08)"
   inkscape:output_extension="org.inkscape.output.svg.inkscape">
  <metadata
     id="metadata2195">
    <rdf:RDF>
      <cc:Work
         rdf:about="">
        <dc:format>image/svg+xml</dc:format>
        <dc:type
           rdf:resource="http://purl.org/dc/dcmitype/StillImage" />
        <dc:title></dc:title>
      </cc:Work>
    </rdf:RDF>
  </metadata>
  <sodipodi:namedview
     id="base"
     inkscape:zoom="0.58100526"
     inkscape:cx="-299.2618"
     inkscape:cy="246.38051"
     inkscape:window-width="3840"
     inkscape:window-height="2054"
     inkscape:window-x="0"
     inkscape:window-y="0"
     inkscape:current-layer="svg548"
     showgrid="false"
     inkscape:window-maximized="1" />
  <defs
     id="defs781">
    <linearGradient
       x1="0"
       y1="0"
       x2="1"
       y2="0"
       id="linearGradient1383"
       gradientUnits="objectBoundingBox"
       spreadMethod="pad">
      <stop
         style="stop-color:#ffffff;stop-opacity:1;"
         offset="0.00000000"
         id="stop1386" />
      <stop
         style="stop-color:#ccf0ff;stop-opacity:1;"
         offset="0.30340001"
         id="stop1385" />
      <stop
         style="stop-color:#1d6ce9;stop-opacity:1;"
         offset="1.00000000"
         id="stop1384" />
    </linearGradient>
    <linearGradient
       x1="61.747101"
       y1="1479.6748"
       x2="61.747101"
       y2="1407.2228"
       id="path12_1_"
       gradientUnits="userSpaceOnUse"
       gradientTransform="matrix(1,0,0,-1,429.7349,1484.611)"
       spreadMethod="pad">
      <stop
         style="stop-color:#ffffd9;stop-opacity:1;"
         offset="0.01120000"
         id="stop569" />
      <stop
         style="stop-color:#ffdc2d;stop-opacity:1;"
         offset="1.00000000"
         id="stop570" />
    </linearGradient>
    <linearGradient
       x1="61.746101"
       y1="1476.0264"
       x2="61.746101"
       y2="1407.1416"
       id="path16_2_"
       gradientUnits="userSpaceOnUse"
       gradientTransform="matrix(1,0,0,-1,429.7349,1484.611)"
       spreadMethod="pad">
      <stop
         style="stop-color:#ffff90;stop-opacity:1;"
         offset="0.00000000"
         id="stop576" />
      <stop
         style="stop-color:#e19700;stop-opacity:1;"
         offset="1.00000000"
         id="stop577" />
    </linearGradient>
    <linearGradient
       x1="61.746601"
       y1="1477.2832"
       x2="61.746601"
       y2="1421.093"
       id="path20_1_"
       gradientUnits="userSpaceOnUse"
       gradientTransform="matrix(1,0,0,-1,429.7349,1484.611)"
       spreadMethod="pad">
      <stop
         style="stop-color:#ffff42;stop-opacity:1;"
         offset="0.00000000"
         id="stop583" />
      <stop
         style="stop-color:#ff8300;stop-opacity:1;"
         offset="1.00000000"
         id="stop584" />
    </linearGradient>
    <linearGradient
       x1="27.8276"
       y1="1494.8096"
       x2="104.6544"
       y2="1381.3988"
       id="path24_1_"
       gradientUnits="userSpaceOnUse"
       gradientTransform="matrix(1,0,0,-1,429.7349,1484.611)"
       spreadMethod="pad">
      <stop
         style="stop-color:#ffff42;stop-opacity:1;"
         offset="0.00000000"
         id="stop590" />
      <stop
         style="stop-color:#ff8300;stop-opacity:1;"
         offset="0.74159998"
         id="stop591" />
    </linearGradient>
    <linearGradient
       x1="61.746601"
       y1="1398.3232"
       x2="61.746601"
       y2="1486.0776"
       id="XMLID_1_"
       gradientUnits="userSpaceOnUse"
       gradientTransform="matrix(1,0,0,-1,429.7349,1484.611)"
       spreadMethod="pad">
      <stop
         style="stop-color:#744426;stop-opacity:1;"
         offset="0.60670000"
         id="stop597" />
      <stop
         style="stop-color:#de972b;stop-opacity:1;"
         offset="1.00000000"
         id="stop598" />
    </linearGradient>
    <linearGradient
       id="linearGradient1379"
       xlink:href="#linearGradient1383" />
    <linearGradient
       id="linearGradient1380"
       xlink:href="#path20_1_" />
    <radialGradient
       cx="0.5"
       cy="0.5"
       fx="0.5"
       fy="0.5"
       r="0.5"
       id="radialGradient1381"
       xlink:href="#linearGradient1383"
       gradientUnits="objectBoundingBox"
       spreadMethod="pad" />
    <radialGradient
       cx="0.48691154"
       cy="0.062499851"
       fx="0.48691154"
       fy="0.062499851"
       r="0.95157194"
       id="radialGradient1382"
       xlink:href="#path24_1_"
       gradientUnits="objectBoundingBox"
       gradientTransform="scale(0.999999,1.000001)"
       spreadMethod="pad" />
    <linearGradient
       x1="0.0045249201"
       y1="0.97436112"
       x2="0.9864254"
       y2="0.01282063"
       id="linearGradient1424"
       xlink:href="#XMLID_1_"
       gradientUnits="objectBoundingBox"
       spreadMethod="pad" />
    <linearGradient
       x1="0.0045247502"
       y1="0.9199807"
       x2="0.98642552"
       y2="0.01999962"
       id="linearGradient1425"
       xlink:href="#linearGradient1383"
       gradientUnits="objectBoundingBox"
       spreadMethod="pad" />
    <linearGradient
       x1="0"
       y1="0"
       x2="1"
       y2="0"
       id="linearGradient1426"
       xlink:href="#linearGradient1383"
       gradientUnits="objectBoundingBox"
       spreadMethod="pad" />
  </defs>
  <path
     d="m 354.04113,302.72005 6.89,3.348 -64.733,125.018 -153.761,59.099 -26.801,-85.887 -4.232,-53.603 8.101,-0.886 3.708,50.782 24.867,79.882 142.935,-56.185 z m 156.5816,-117.082 -21.16602,77.586 -99.10458,34.021 -2.463,-8.624 94.5165,-32.447 17.81398,-63.48 -182.85748,-31.036 -42.482,-40.219 5.804,-6.332 40.909,39.496 z m -412.428595,150.938 h -7.94 L 106.46113,88.793054 94.486135,62.910057 l 56.427995,-36.678 30.11,9.414 30.548,-10.824 40.909,36.677 -5.478,5.479 -37.399,-33.331 -28.178,10.236 -28.902,-8.825 -47.488,29.912 9.335,23.945997 -15.651995,247.659996 v 0 z"
     style="font-size:12px;fill:#e1e1e1"
     id="path622"
     inkscape:connector-curvature="0" />
  <path
     d="m 112.29368,322.68106 17.01347,-238.191446 -8.50701,-21.874701 19.44419,-12.152607 27.9512,9.722091 25.52047,-14.583112 100.86673,119.095495 182.28916,35.24284 -9.72182,43.7493 -130.03318,46.18003 -58.33247,120.3107 -126.38698,53.47167 -21.87493,-77.77677 2.43073,-46.18003 z"
     style="font-size:12px;fill:#e1e1e1;fill-rule:evenodd;stroke-width:0.54993904pt"
     id="path1470"
     inkscape:connector-curvature="0" />
  <path
     d="m 346.54149,298.71294 6.89,3.348 -64.733,125.018 -153.761,59.099 -26.801,-85.887 -4.232,-53.603 8.101,-0.886 3.708,50.782 24.867,79.882 142.935,-56.185 z m 156.582,-117.082 -21.166,77.586 -99.105,34.021 -2.463,-8.624 94.516,-32.447 17.814,-63.48 -182.857,-31.036 -42.482,-40.219 5.804,-6.332 40.909,39.496 z m -412.428992,150.938 h -7.9401 l 16.2071,-247.782996 -11.9752,-25.882997 56.428192,-36.678 30.11,9.414 30.548,-10.824 40.909,36.677 -5.478,5.479 -37.399,-33.331 -28.178,10.236 -28.902,-8.825 -47.487992,29.912 9.334992,23.945997 -15.651992,247.659996 v 0 z"
     style="font-size:12px;fill:#1f5ea3;fill-opacity:1"
     id="path629"
     inkscape:connector-curvature="0" />
  <path
     d="m 105.34488,316.72486 17.01347,-238.191443 -8.50701,-21.874704 19.44419,-12.152607 27.9512,9.722091 25.52047,-14.583112 100.86673,119.095495 182.28916,35.24284 -9.72182,43.7493 -130.03318,46.18003 -58.33247,120.3107 -126.38698,53.47167 -21.87493,-77.77677 2.43073,-46.18003 z"
     style="font-size:12px;fill:#69b0ff;fill-opacity:1;fill-rule:evenodd;stroke-width:0.54993904pt"
     id="path638"
     inkscape:connector-curvature="0" />
  <path
     d="m 110.2427,174.74169 -15.560553,72.61196 c -0.248884,0.51844 -0.453553,1.35923 -0.608303,2.53375 -3.323913,15.54628 -8.571858,26.03289 -15.747403,31.47052 -7.181962,5.43549 -17.586573,8.14611 -31.232373,8.14611 -5.486132,0 -10.508727,-0.25245 -15.072779,-0.72882 -4.56619,-0.49349 -9.165898,-1.73505 -13.807681,-3.73682 -4.641782,-1.99534 -8.4627487,-5.2137 -11.4621861,-9.65937 -3.0051425,-4.43425 -4.4991561,-10.34897 -4.4991561,-17.74058 0,-2.10018 0.2581542,-4.73734 0.7680442,-7.91933 l 33.015205,-3.77247 v 1.30004 c -0.207522,1.42983 -0.310926,2.88462 -0.310926,4.36508 v 2.38257 c 0,6.18072 3.388808,9.26929 10.15858,9.26929 3.254025,0 5.799197,-0.81796 7.62981,-2.46102 1.833465,-1.63664 3.195549,-3.7418 4.084112,-6.30694 0.888564,-2.56157 1.819203,-6.20282 2.791916,-10.92661 l 14.84529,-68.82458 z m 120.56755,0 -14.48687,68.00655 c -3.43659,15.91568 -9.55527,27.68878 -18.37102,35.32143 -8.8186,7.62481 -21.91529,11.43721 -39.28579,11.43721 -9.63727,0 -17.34054,-0.94775 -23.10622,-2.8511 -5.76639,-1.89479 -10.62639,-4.74518 -14.56788,-8.55473 -3.94648,-3.79815 -6.81969,-8.12614 -8.60823,-12.984 -1.79424,-4.855 -2.68851,-10.05801 -2.68851,-15.59976 0,-7.04432 0.69245,-13.76559 2.08021,-20.17379 l 11.60767,-54.59903 h 34.99129 l -13.55594,63.44258 c -0.61971,2.97162 -0.91923,6.12509 -0.91923,9.45256 0,8.9277 5.2672,13.39333 15.79804,13.39333 5.57028,0 10.31261,-1.69582 14.22343,-5.07963 3.90726,-3.38025 6.88673,-9.94249 8.93627,-19.68601 l 12.83782,-61.52005 z m 118.82457,30.95934 -34.34662,3.76463 c -3.13387,-8.93341 -9.50257,-13.40118 -19.1089,-13.40118 -9.40162,0 -16.85226,4.76515 -22.34638,14.28475 -5.4969,9.52174 -8.24959,19.70811 -8.24959,30.56769 0,6.28982 2.03506,11.55131 6.10798,15.79801 4.08133,4.24385 9.26709,6.36613 15.57408,6.36613 h 0.30836 c 7.17038,0 13.47175,-1.85842 18.90426,-5.58097 l 2.61812,-12.29154 h -21.44672 l 5.08489,-23.45634 h 52.71543 l -11.29938,53.13546 c -17.5671,8.69237 -34.97447,13.04319 -52.22205,13.04319 -15.56573,0 -27.89659,-4.20748 -37.01513,-12.62814 -9.11299,-8.41781 -13.66805,-20.25224 -13.66805,-35.4933 0,-12.72869 2.90409,-24.40337 8.70935,-35.02476 5.80518,-10.62923 13.99031,-18.87875 24.55245,-24.75709 10.55936,-5.87785 22.66876,-8.81831 36.34518,-8.81831 26.71375,0.003 42.97461,11.49826 48.78272,34.49177 z"
     style="font-size:12px;fill:#ffffff;fill-opacity:1;stroke:#1f5ea3;stroke-width:3.75000024;stroke-dasharray:none;stroke-opacity:1"
     id="path1430"
     inkscape:connector-curvature="0" />
  <path
     d="m 434.18828,329.40776 c 1.17822,-4.80663 3.86166,-8.52204 8.05931,-11.13498 4.1819,-2.60844 10.67599,-3.91866 19.47703,-3.91866 9.97176,0 16.69835,1.25022 20.18426,3.76116 3.49717,2.50644 5.24763,6.14686 5.24763,10.93549 0,3.18817 -0.87373,8.43205 -2.61669,15.73462 -1.62221,6.92684 -2.42019,11.74097 -2.42019,14.45516 0,2.29644 0.39899,4.63413 1.20447,7.03183 h -18.94229 c -0.45149,-2.00245 -0.67349,-3.93741 -0.67349,-5.78611 -5.09688,4.66413 -10.78474,7.00183 -17.06059,7.00183 -6.40635,0 -11.00298,-1.50147 -13.80717,-4.49839 -2.81243,-3.00743 -4.2089,-6.47835 -4.2089,-10.442 0,-4.4984 1.25022,-7.92056 3.74916,-10.28451 2.48844,-2.36394 5.56787,-3.9599 9.22328,-4.80663 3.65466,-0.85498 8.65404,-1.58096 14.97414,-2.2327 5.63537,-0.60598 9.38078,-1.19322 11.25573,-1.76546 0.38024,-1.49846 0.56099,-2.64218 0.56099,-3.43641 0,-1.27647 -0.65924,-2.29645 -1.9537,-3.05318 -1.30647,-0.76423 -3.04943,-1.15572 -5.19888,-1.15572 -2.2582,0 -4.0844,0.35399 -5.47337,1.06872 -1.40771,0.71174 -2.63468,2.21395 -3.69291,4.49089 z m 31.53749,14.11691 c -8.98178,1.50897 -14.2519,2.83419 -15.81787,3.98991 -1.56596,1.15572 -2.34519,2.52594 -2.34519,4.09565 0,1.63721 0.54974,2.92868 1.67171,3.86616 1.12122,0.94497 2.56344,1.42271 4.31015,1.42271 2.46144,0 4.90488,-1.00122 7.31382,-3.01118 2.41344,-1.99945 4.03565,-5.45836 4.86738,-10.36325 z m -22.6577,-27.95033 -31.75949,50.70179 h -17.25611 l -9.68197,-50.70179 h 18.41146 l 2.85376,32.09848 h 0.18824 l 16.87535,-32.09848 z m -78.75404,-1.22022 c 9.07958,0 15.71242,2.30395 19.8758,6.89684 4.15588,4.58839 6.23753,9.97551 6.23753,16.12986 0,4.69789 -1.18955,9.46027 -3.58739,14.32016 -2.39042,4.84413 -5.98913,8.69904 -10.78489,11.53022 -4.79959,2.84168 -10.70967,4.26065 -17.72268,4.26065 -8.89141,0 -15.4602,-2.1907 -19.71013,-6.58334 -4.23492,-4.38215 -6.35426,-9.85552 -6.35426,-16.39386 0,-5.13513 1.26483,-10.10001 3.80201,-14.88039 2.52968,-4.78489 6.20744,-8.53405 11.02203,-11.22948 4.81083,-2.69919 10.55524,-4.05066 17.22198,-4.05066 z m -4.74686,40.11354 c 3.66269,0 6.56504,-1.8787 8.71449,-5.63161 2.14945,-3.73791 3.22605,-7.90556 3.22605,-12.4752 0,-3.31268 -0.82063,-5.64287 -2.45814,-6.97559 -1.63751,-1.34022 -3.45194,-2.00245 -5.43572,-2.00245 -4.14455,0 -7.24265,1.87871 -9.3168,5.64287 -2.0779,3.77165 -3.10185,7.61156 -3.10185,11.54522 0,2.82293 0.80555,5.19137 2.42799,7.06933 1.61493,1.8862 3.59496,2.82743 5.94398,2.82743 z m -17.41773,-58.34035 -14.99342,70.14882 h -18.12166 l 0.96748,-5.09313 -0.19575,-0.24449 c -2.74043,2.57093 -5.22115,4.30639 -7.42707,5.20937 -2.221,0.89248 -4.84849,1.34397 -7.91269,1.34397 -5.73691,0 -10.1186,-1.90046 -13.16398,-5.71036 -3.04163,-3.80916 -4.56619,-8.93679 -4.56619,-15.36264 0,-8.60154 2.28497,-16.09236 6.85116,-22.48071 4.56619,-6.38384 10.34068,-9.58027 17.33111,-9.58027 7.1372,0 12.5127,2.65419 16.15664,7.93931 l 5.54866,-26.16987 z m -39.8269,58.51735 c 3.61004,0 6.38438,-2.01821 8.31543,-6.04561 1.92738,-4.02815 2.89486,-8.14255 2.89486,-12.34395 0,-2.95868 -0.76041,-5.17188 -2.26997,-6.65534 -1.52074,-1.48647 -3.24863,-2.21695 -5.20233,-2.21695 -2.84206,0 -5.27762,1.80296 -7.32545,5.41712 -2.04782,3.62091 -3.06795,7.96556 -3.06795,13.05869 0,2.85668 0.61738,5.04738 1.84076,6.53084 1.22719,1.50221 2.83838,2.2552 4.81465,2.2552 z m -76.42001,-25.2369 c 1.17447,-4.80663 3.86166,-8.52204 8.04806,-11.13498 4.19315,-2.60844 10.69099,-3.91866 19.48828,-3.91866 9.97146,0 16.70217,1.25022 20.19551,3.76116 3.48202,2.50644 5.2249,6.14686 5.2249,10.93549 0,3.18817 -0.86203,8.43205 -2.61248,15.73462 -1.61487,6.92684 -2.42425,11.74097 -2.42425,14.45516 0,2.29644 0.40282,4.63413 1.21587,7.03183 H 256.0887 c -0.44046,-2.00245 -0.67385,-3.93741 -0.67385,-5.78611 -5.09666,4.66413 -10.77327,7.00183 -17.05662,7.00183 -6.4026,0 -11.00299,-1.50147 -13.80717,-4.49839 -2.80493,-3.00743 -4.2014,-6.47835 -4.2014,-10.442 0,-4.4984 1.24647,-7.92056 3.73791,-10.28451 2.49969,-2.36394 5.56787,-3.9599 9.22328,-4.80663 3.66216,-0.85498 8.65404,-1.58096 14.98164,-2.2327 5.62412,-0.60598 9.37343,-1.19322 11.25183,-1.76546 0.38024,-1.49846 0.56091,-2.64218 0.56091,-3.43641 0,-1.27647 -0.65496,-2.29645 -1.95745,-3.05318 -1.30999,-0.77173 -3.0378,-1.15572 -5.1949,-1.15572 -2.2582,0 -4.0844,0.35399 -5.48462,1.06872 -1.39647,0.71174 -2.62344,2.21395 -3.68916,4.49089 z m 31.53382,14.11691 c -8.98561,1.50897 -14.25574,2.83419 -15.8217,3.98991 -1.56596,1.15572 -2.34519,2.52594 -2.34519,4.09565 0,1.63721 0.56098,2.92868 1.67921,3.86616 1.10997,0.94497 2.55594,1.42271 4.31014,1.42271 2.45395,0 4.89739,-1.00122 7.30633,-3.01118 2.42057,-1.99945 4.043,-5.45836 4.87121,-10.36325 z M 175.2,296.12731 h 31.79023 c 5.97361,0 10.48775,0.70798 13.52518,2.12695 3.03818,1.41897 5.35712,3.52717 6.93808,6.3201 1.59596,2.79368 2.39019,6.2226 2.39019,10.26575 0,5.26263 -1.41146,9.95301 -4.24639,14.05241 -2.84919,4.09941 -6.41085,7.04684 -10.70225,8.83104 -4.29889,1.79171 -10.24625,2.67669 -17.84657,2.67669 h -9.55027 l -5.58587,25.87588 h -21.86722 z m 15.30638,30.38252 h 7.26507 c 3.38017,0 6.16561,-1.00947 8.3338,-3.01193 2.1682,-2.00245 3.25643,-4.40014 3.25643,-7.17507 0,-4.2044 -2.27395,-6.30885 -6.82109,-6.30885 h -8.47705 z"
     style="font-size:12px;fill:#ffffff;fill-opacity:1;stroke:#1f5ea3;stroke-width:3.81191111;stroke-opacity:1"
     id="path1443"
     inkscape:connector-curvature="0" />
</svg>
