<?xml version="1.0" encoding="UTF-8" standalone="no"?>
<!DOCTYPE svg PUBLIC "-//W3C//DTD SVG 20010904//EN"
"http://www.w3.org/TR/2001/REC-SVG-20010904/DTD/svg10.dtd">
<!-- Created with Sodipodi ("http://www.sodipodi.com/") -->
<svg
   version="1"
   x="0.00000000"
   y="0.00000000"
   width="548.416016"
   height="700.510010"
   viewBox="0 0 548.416 700.51"
   id="svg548"
   xmlns="http://www.w3.org/2000/svg"
   xmlns:xlink="http://www.w3.org/1999/xlink"
   xmlns:sodipodi="http://sodipodi.sourceforge.net/DTD/sodipodi-0.dtd"
   sodipodi:version="0.31.1win"
   sodipodi:docname="D:\Documents and Settings\keip\Documenti\My Web Sites\jugpadova\misc\graphics\prove\logo1.svg">
  <sodipodi:namedview
     id="base" />
  <defs
     id="defs781">
    <linearGradient
       x1="0.00000000"
       y1="0.00000000"
       x2="1.00000000"
       y2="0.00000000"
       id="linearGradient1383"
       gradientUnits="objectBoundingBox"
       spreadMethod="pad">
      <stop
         style="stop-color:#ffffff;stop-opacity:1;"
         offset="0.00000000"
         id="stop1386" />
      <stop
         style="stop-color:#ccf0ff;stop-opacity:1;"
         offset="0.30340001"
         id="stop1385" />
      <stop
         style="stop-color:#1d6ce9;stop-opacity:1;"
         offset="1.00000000"
         id="stop1384" />
    </linearGradient>
    <linearGradient
       x1="61.7471008"
       y1="1479.67480"
       x2="61.7471008"
       y2="1407.22278"
       id="path12_1_"
       gradientUnits="userSpaceOnUse"
       gradientTransform="matrix(1.000000,0.000000,0.000000,-1.000000,429.7349,1484.611)"
       spreadMethod="pad">
      <stop
         style="stop-color:#ffffd9;stop-opacity:1;"
         offset="0.01120000"
         id="stop569" />
      <stop
         style="stop-color:#ffdc2d;stop-opacity:1;"
         offset="1.00000000"
         id="stop570" />
    </linearGradient>
    <linearGradient
       x1="61.7461014"
       y1="1476.02637"
       x2="61.7461014"
       y2="1407.14160"
       id="path16_2_"
       gradientUnits="userSpaceOnUse"
       gradientTransform="matrix(1.000000,0.000000,0.000000,-1.000000,429.7349,1484.611)"
       spreadMethod="pad">
      <stop
         style="stop-color:#ffff90;stop-opacity:1;"
         offset="0.00000000"
         id="stop576" />
      <stop
         style="stop-color:#e19700;stop-opacity:1;"
         offset="1.00000000"
         id="stop577" />
    </linearGradient>
    <linearGradient
       x1="61.7466011"
       y1="1477.28320"
       x2="61.7466011"
       y2="1421.09302"
       id="path20_1_"
       gradientUnits="userSpaceOnUse"
       gradientTransform="matrix(1.000000,0.000000,0.000000,-1.000000,429.7349,1484.611)"
       spreadMethod="pad">
      <stop
         style="stop-color:#ffff42;stop-opacity:1;"
         offset="0.00000000"
         id="stop583" />
      <stop
         style="stop-color:#ff8300;stop-opacity:1;"
         offset="1.00000000"
         id="stop584" />
    </linearGradient>
    <linearGradient
       x1="27.8276005"
       y1="1494.80957"
       x2="104.654404"
       y2="1381.39880"
       id="path24_1_"
       gradientUnits="userSpaceOnUse"
       gradientTransform="matrix(1.000000,0.000000,0.000000,-1.000000,429.7349,1484.611)"
       spreadMethod="pad">
      <stop
         style="stop-color:#ffff42;stop-opacity:1;"
         offset="0.00000000"
         id="stop590" />
      <stop
         style="stop-color:#ff8300;stop-opacity:1;"
         offset="0.74159998"
         id="stop591" />
    </linearGradient>
    <linearGradient
       x1="61.7466011"
       y1="1398.32324"
       x2="61.7466011"
       y2="1486.07764"
       id="XMLID_1_"
       gradientUnits="userSpaceOnUse"
       gradientTransform="matrix(1.000000,0.000000,0.000000,-1.000000,429.7349,1484.611)"
       spreadMethod="pad">
      <stop
         style="stop-color:#744426;stop-opacity:1;"
         offset="0.60670000"
         id="stop597" />
      <stop
         style="stop-color:#de972b;stop-opacity:1;"
         offset="1.00000000"
         id="stop598" />
    </linearGradient>
    <linearGradient
       id="linearGradient1379"
       xlink:href="#linearGradient1383" />
    <linearGradient
       id="linearGradient1380"
       xlink:href="#path20_1_" />
    <radialGradient
       cx="0.50000000"
       cy="0.50000000"
       fx="0.50000000"
       fy="0.50000000"
       r="0.50000000"
       id="radialGradient1381"
       xlink:href="#linearGradient1383"
       gradientUnits="objectBoundingBox"
       spreadMethod="pad" />
    <radialGradient
       cx="0.48691154"
       cy="0.06249985"
       fx="0.48691154"
       fy="0.06249985"
       r="0.95157194"
       id="radialGradient1382"
       xlink:href="#path24_1_"
       gradientUnits="objectBoundingBox"
       gradientTransform="scale(0.999999,1.000001)"
       spreadMethod="pad" />
    <linearGradient
       x1="0.00452492"
       y1="0.97436112"
       x2="0.98642540"
       y2="0.01282063"
       id="linearGradient1424"
       xlink:href="#XMLID_1_"
       gradientUnits="objectBoundingBox"
       spreadMethod="pad" />
    <linearGradient
       x1="0.00452475"
       y1="0.91998070"
       x2="0.98642552"
       y2="0.01999962"
       id="linearGradient1425"
       xlink:href="#linearGradient1383"
       gradientUnits="objectBoundingBox"
       spreadMethod="pad" />
    <linearGradient
       x1="0.00000000"
       y1="0.00000000"
       x2="1.00000000"
       y2="0.00000000"
       id="linearGradient1426"
       xlink:href="#linearGradient1383"
       gradientUnits="objectBoundingBox"
       spreadMethod="pad" />
  </defs>
  <path
     d="M -140.934 431.596 L -134.044 434.944 L -198.777 559.962 L -352.538 619.061 L -379.339 533.174 L -383.571 479.571 L -375.47 478.685 L -371.762 529.467 L -346.895 609.349 L -203.96 553.164 L -140.934 431.596 L -140.934 431.596 L -140.934 431.596 L -140.934 431.596 L -140.934 431.596 L -140.934 431.596 L -140.934 431.596 z M 15.6476 314.514 L -5.51842 392.1 L -104.623 426.121 L -107.086 417.497 L -12.5695 385.05 L 5.24448 321.57 L -177.613 290.534 L -220.095 250.315 L -214.291 243.983 L -173.382 283.479 L 15.6476 314.514 L 15.6476 314.514 z M -396.781 465.452 L -404.721 465.452 L -388.514 217.669 L -400.489 191.786 L -344.061 155.108 L -313.951 164.522 L -283.403 153.698 L -242.494 190.375 L -247.972 195.854 L -285.371 162.523 L -313.549 172.759 L -342.451 163.934 L -389.939 193.846 L -380.604 217.792 L -396.256 465.452 L -396.256 465.452 L -396.781 465.452 L -396.781 465.452 z "
     transform="translate(503.5289,-22.42548)"
     style="font-size:12;fill:#e1e1e1;"
     id="path622" />
  <path
     d="M -406.605 483.949 L -375.668 50.8256 L -391.137 11.049 L -355.78 -11.0491 L -304.954 6.62939 L -258.548 -19.8883 L -75.1336 196.673 L 256.338 260.758 L 238.66 340.311 L 2.20981 424.284 L -103.861 643.055 L -333.681 740.287 L -373.458 598.859 L -369.038 514.886 L -406.605 483.949 z "
     transform="matrix(0.549939,0.000000,0.000000,0.549939,344.4554,162.9891)"
     style="font-size:12;fill:#e1e1e1;fill-rule:evenodd;stroke-width:1pt;"
     id="path1470" />
  <path
     d="M 359.066 380.346 L 365.956 383.694 L 301.223 508.712 L 147.462 567.811 L 120.661 481.924 L 116.429 428.321 L 124.53 427.435 L 128.238 478.217 L 153.105 558.099 L 296.04 501.914 L 359.066 380.346 L 359.066 380.346 L 359.066 380.346 L 359.066 380.346 L 359.066 380.346 L 359.066 380.346 L 359.066 380.346 z M 515.648 263.264 L 494.482 340.85 L 395.377 374.871 L 392.914 366.247 L 487.43 333.8 L 505.244 270.32 L 322.387 239.284 L 279.905 199.065 L 285.709 192.733 L 326.618 232.229 L 515.648 263.264 L 515.648 263.264 z M 103.219 414.202 L 95.2789 414.202 L 111.486 166.419 L 99.5108 140.536 L 155.939 103.858 L 186.049 113.272 L 216.597 102.448 L 257.506 139.125 L 252.028 144.604 L 214.629 111.273 L 186.451 121.509 L 157.549 112.684 L 110.061 142.596 L 119.396 166.542 L 103.744 414.202 L 103.744 414.202 L 103.219 414.202 L 103.219 414.202 z "
     transform="translate(-3.970737,24.81741)"
     style="font-size:12;fill:#1f5ea3;fill-opacity:1;"
     id="path629" />
  <path
     d="M -406.605 483.949 L -375.668 50.8256 L -391.137 11.049 L -355.78 -11.0491 L -304.954 6.62939 L -258.548 -19.8883 L -75.1336 196.673 L 256.338 260.758 L 238.66 340.311 L 2.20981 424.284 L -103.861 643.055 L -333.681 740.287 L -373.458 598.859 L -369.038 514.886 L -406.605 483.949 z "
     transform="matrix(0.549939,0.000000,0.000000,0.549939,337.5066,157.0329)"
     style="font-size:12;fill:#69b0ff;fill-rule:evenodd;stroke-width:1pt;fill-opacity:1;"
     id="path638" />
  <path
     d="M -250.318 94.2888 L -272.138 196.11 C -272.487 196.837 -272.774 198.016 -272.991 199.663 C -277.652 221.463 -285.011 236.168 -295.073 243.793 C -305.144 251.415 -319.734 255.216 -338.869 255.216 C -346.562 255.216 -353.605 254.862 -360.005 254.194 C -366.408 253.502 -372.858 251.761 -379.367 248.954 C -385.876 246.156 -391.234 241.643 -395.44 235.409 C -399.654 229.191 -401.749 220.897 -401.749 210.532 C -401.749 207.587 -401.387 203.889 -400.672 199.427 L -354.376 194.137 L -354.376 195.96 C -354.667 197.965 -354.812 200.005 -354.812 202.081 L -354.812 205.422 C -354.812 214.089 -350.06 218.42 -340.567 218.42 C -336.004 218.42 -332.435 217.273 -329.868 214.969 C -327.297 212.674 -325.387 209.722 -324.141 206.125 C -322.895 202.533 -321.59 197.427 -320.226 190.803 L -299.409 94.2927 L -250.318 94.2888 L -250.318 94.2888 z M -81.2506 94.2888 L -101.565 189.652 C -106.384 211.97 -114.964 228.479 -127.326 239.182 C -139.692 249.874 -158.057 255.22 -182.415 255.22 C -195.929 255.22 -206.731 253.891 -214.816 251.222 C -222.902 248.565 -229.717 244.568 -235.244 239.226 C -240.778 233.9 -244.807 227.831 -247.315 221.019 C -249.831 214.211 -251.085 206.915 -251.085 199.144 C -251.085 189.266 -250.114 179.841 -248.168 170.855 L -231.891 94.2927 L -182.824 94.2927 L -201.833 183.256 C -202.702 187.423 -203.122 191.845 -203.122 196.511 C -203.122 209.03 -195.736 215.292 -180.969 215.292 C -173.158 215.292 -166.508 212.914 -161.024 208.169 C -155.545 203.429 -151.367 194.227 -148.493 180.564 L -130.491 94.2966 L -81.2506 94.2888 L -81.2506 94.2888 z M 85.3727 137.702 L 37.2097 142.981 C 32.8152 130.454 23.8846 124.189 10.414 124.189 C -2.76954 124.189 -13.2173 130.871 -20.9215 144.22 C -28.6296 157.572 -32.4896 171.856 -32.4896 187.084 C -32.4896 195.904 -29.6359 203.282 -23.9246 209.237 C -18.2015 215.188 -10.9297 218.164 -2.08564 218.164 L -1.65324 218.164 C 8.40151 218.164 17.2377 215.558 24.8555 210.338 L 28.5268 193.102 L -1.54714 193.102 L 5.5832 160.21 L 79.5041 160.21 L 63.6594 234.72 C 39.0257 246.909 14.616 253.01 -9.56964 253.01 C -31.3969 253.01 -48.688 247.11 -61.4746 235.302 C -74.2534 223.498 -80.6408 206.903 -80.6408 185.531 C -80.6408 167.682 -76.5685 151.311 -68.428 136.417 C -60.2876 121.512 -48.8099 109.944 -33.999 101.701 C -19.192 93.4587 -2.21144 89.3354 16.9665 89.3354 C 54.4262 89.3393 77.2282 105.459 85.3727 137.702 L 85.3727 137.702 z "
     transform="matrix(0.713133,0.000000,0.000000,0.713132,297.3065,213.9518)"
     style="font-size:12;fill:#ffffff;stroke-width:5.25849;fill-opacity:1;stroke:#1f5ea3;stroke-opacity:1;stroke-dasharray:none;"
     id="path1430" />
  <path
     d="M 138.945 425.992 C 140.516 419.583 144.094 414.629 149.691 411.145 C 155.267 407.667 163.926 405.92 175.661 405.92 C 188.957 405.92 197.926 407.587 202.574 410.935 C 207.237 414.277 209.571 419.131 209.571 425.516 C 209.571 429.767 208.406 436.759 206.082 446.496 C 203.919 455.732 202.855 462.151 202.855 465.77 C 202.855 468.832 203.387 471.949 204.461 475.146 L 179.204 475.146 C 178.602 472.476 178.306 469.896 178.306 467.431 C 171.51 473.65 163.926 476.767 155.558 476.767 C 147.016 476.767 140.887 474.765 137.148 470.769 C 133.398 466.759 131.536 462.131 131.536 456.846 C 131.536 450.848 133.203 446.285 136.535 443.133 C 139.853 439.981 143.959 437.853 148.833 436.724 C 153.706 435.584 160.372 434.616 168.799 433.747 C 176.313 432.939 181.307 432.156 183.807 431.393 C 184.314 429.395 184.555 427.87 184.555 426.811 C 184.555 425.109 183.676 423.749 181.95 422.74 C 180.208 421.721 177.884 421.199 175.018 421.199 C 172.007 421.199 169.572 421.671 167.72 422.624 C 165.843 423.573 164.207 425.576 162.796 428.612 L 138.945 425.992 z M 180.996 444.815 C 169.02 446.827 161.993 448.594 159.905 450.135 C 157.817 451.676 156.778 453.503 156.778 455.596 C 156.778 457.779 157.511 459.501 159.007 460.751 C 160.502 462.011 162.425 462.648 164.754 462.648 C 168.036 462.648 171.294 461.313 174.506 458.633 C 177.724 455.967 179.887 451.355 180.996 444.815 z M 150.785 407.547 L 108.438 475.151 L 85.4293 475.151 L 72.5197 407.547 L 97.0689 407.547 L 100.874 450.346 L 101.125 450.346 L 123.626 407.547 L 150.785 407.547 z M 45.7771 405.92 C 57.8835 405.92 66.7275 408.992 72.2788 415.116 C 77.8201 421.234 80.5957 428.417 80.5957 436.623 C 80.5957 442.887 79.0096 449.237 75.8124 455.717 C 72.6251 462.176 67.8267 467.316 61.4322 471.091 C 55.0326 474.88 47.1523 476.772 37.8014 476.772 C 25.9459 476.772 17.1873 473.851 11.5206 467.994 C 5.8739 462.151 3.04805 454.853 3.04805 446.135 C 3.04805 439.288 4.73452 432.668 8.11751 426.294 C 11.4905 419.914 16.3943 414.915 22.8139 411.321 C 29.2285 407.722 36.8879 405.92 45.7771 405.92 z M 39.4478 459.406 C 44.3315 459.406 48.2014 456.901 51.0674 451.897 C 53.9334 446.913 55.3689 441.356 55.3689 435.263 C 55.3689 430.846 54.2747 427.739 52.0913 425.962 C 49.9079 424.175 47.4886 423.292 44.8435 423.292 C 39.3173 423.292 35.1864 425.797 32.4208 430.816 C 29.6502 435.845 28.2849 440.965 28.2849 446.21 C 28.2849 449.974 29.359 453.132 31.5223 455.636 C 33.6756 458.151 36.3157 459.406 39.4478 459.406 z M 16.2236 381.617 L -3.76811 475.151 L -27.9309 475.151 L -26.6409 468.36 L -26.9019 468.034 C -30.5559 471.462 -33.8636 473.776 -36.8049 474.98 C -39.7663 476.17 -43.2697 476.772 -47.3554 476.772 C -55.0048 476.772 -60.8472 474.238 -64.9078 469.158 C -68.9634 464.079 -70.9962 457.242 -70.9962 448.674 C -70.9962 437.205 -67.9495 427.217 -61.8611 418.699 C -55.7727 410.187 -48.0732 405.925 -38.7524 405.925 C -29.2359 405.925 -22.0684 409.464 -17.2097 416.511 L -9.81131 381.617 L 16.2236 381.617 z M -36.8802 459.642 C -32.0667 459.642 -28.3675 456.951 -25.7927 451.581 C -23.2228 446.21 -21.9328 440.724 -21.9328 435.122 C -21.9328 431.177 -22.9467 428.226 -24.9595 426.248 C -26.9872 424.266 -29.2911 423.292 -31.8961 423.292 C -35.6856 423.292 -38.9331 425.696 -41.6636 430.515 C -44.3941 435.343 -45.7543 441.136 -45.7543 447.927 C -45.7543 451.736 -44.9311 454.657 -43.2999 456.635 C -41.6636 458.638 -39.5153 459.642 -36.8802 459.642 z M -138.776 425.992 C -137.21 419.583 -133.627 414.629 -128.045 411.145 C -122.454 407.667 -113.79 405.92 -102.06 405.92 C -88.7644 405.92 -79.7899 407.587 -75.132 410.935 C -70.4892 414.277 -68.1653 419.131 -68.1653 425.516 C -68.1653 429.767 -69.3147 436.759 -71.6487 446.496 C -73.8019 455.732 -74.8811 462.151 -74.8811 465.77 C -74.8811 468.832 -74.344 471.949 -73.2599 475.146 L -98.5268 475.146 C -99.1141 472.476 -99.4253 469.896 -99.4253 467.431 C -106.221 473.65 -113.79 476.767 -122.168 476.767 C -130.705 476.767 -136.839 474.765 -140.578 470.769 C -144.318 466.759 -146.18 462.131 -146.18 456.846 C -146.18 450.848 -144.518 446.285 -141.196 443.133 C -137.863 439.981 -133.772 437.853 -128.898 436.724 C -124.015 435.584 -117.359 434.616 -108.922 433.747 C -101.423 432.939 -96.4238 432.156 -93.9192 431.393 C -93.4122 429.395 -93.1713 427.87 -93.1713 426.811 C -93.1713 425.109 -94.0446 423.749 -95.7813 422.74 C -97.528 421.711 -99.8318 421.199 -102.708 421.199 C -105.719 421.199 -108.154 421.671 -110.021 422.624 C -111.883 423.573 -113.519 425.576 -114.94 428.612 L -138.776 425.992 z M -96.7299 444.815 C -108.711 446.827 -115.738 448.594 -117.826 450.135 C -119.914 451.676 -120.953 453.503 -120.953 455.596 C -120.953 457.779 -120.205 459.501 -118.714 460.751 C -117.234 462.011 -115.306 462.648 -112.967 462.648 C -109.695 462.648 -106.437 461.313 -103.225 458.633 C -99.9975 455.967 -97.8342 451.355 -96.7299 444.815 z M -206.381 381.617 L -163.993 381.617 C -156.028 381.617 -150.009 382.561 -145.959 384.453 C -141.908 386.345 -138.816 389.156 -136.708 392.88 C -134.58 396.605 -133.521 401.177 -133.521 406.568 C -133.521 413.585 -135.403 419.839 -139.183 425.305 C -142.982 430.771 -147.731 434.701 -153.453 437.08 C -159.185 439.469 -167.115 440.649 -177.249 440.649 L -189.983 440.649 L -197.431 475.151 L -226.588 475.151 L -206.381 381.617 z M -185.972 422.128 L -176.285 422.128 C -171.778 422.128 -168.064 420.782 -165.173 418.112 C -162.282 415.442 -160.831 412.245 -160.831 408.545 C -160.831 402.939 -163.863 400.133 -169.926 400.133 L -181.229 400.133 L -185.972 422.128 z "
     transform="matrix(0.749982,0.000000,0.000000,0.749982,338.5358,116.3719)"
     style="font-size:12;fill:#ffffff;stroke-width:5.08267;fill-opacity:1;stroke:#1f5ea3;stroke-opacity:1;"
     id="path1443" />
</svg>
